<?xml version="1.0" standalone="no"?>
<!DOCTYPE svg PUBLIC "-//W3C//DTD SVG 20010904//EN"
 "http://www.w3.org/TR/2001/REC-SVG-20010904/DTD/svg10.dtd">
<svg version="1.0" xmlns="http://www.w3.org/2000/svg"
 width="225.000000pt" height="225.000000pt" viewBox="0 0 225.000000 225.000000"
 preserveAspectRatio="xMidYMid meet">

<g transform="translate(0.000000,225.000000) scale(0.100000,-0.100000)"
fill="#E50914" stroke="none">
<path d="M570 1125 l0 -1125 205 0 205 0 0 560 c0 308 3 560 8 560 4 0 17 -28
29 -63 11 -34 37 -105 57 -157 19 -52 53 -142 75 -200 21 -58 67 -179 100
-270 34 -91 75 -199 92 -240 16 -41 29 -79 29 -83 0 -5 10 -31 21 -58 l22 -49
206 2 206 3 3 1123 2 1122 -210 0 -210 0 0 -562 c0 -309 -3 -558 -7 -554 -7 7
-22 44 -87 221 -100 268 -158 423 -167 445 -6 14 -40 104 -75 200 -36 96 -72
192 -81 213 l-16 37 -204 0 -203 0 0 -1125z"/>
</g>
</svg>
